<?xml version="1.0" encoding="utf-8"?><svg version="1.1" id="Layer_1" xmlns="http://www.w3.org/2000/svg" xmlns:xlink="http://www.w3.org/1999/xlink" x="0px" y="0px"	 viewBox="0 0 1224 792" style="enable-background:new 0 0 1224 792;" xml:space="preserve"><style type="text/css">	.st0{opacity:0.09;fill:#191919;enable-background:new    ;}</style><g>	<path class="st0" d="M912.8,669h-45.4v-23.7h-23.7v-11.8H749v-23.7h-49.4v23.7h-94.8v11.8V671v9.8h-47.4v25.7h49.4v-23.7h94.8		v-47.4H747v47.4h96.8V671h21.7v23.7h49.4V671h47.4v-25.7h-49.4V669H912.8z M606.8,647.3h45.4V669h-45.4V647.3z M604.8,704.5h-45.4		v-21.7h45.4V704.5z M699.6,680.8h-92.8V671h47.4v-25.7h-47.4v-9.8h92.8V680.8z M701.6,633.5v-21.7H747v21.7H701.6z M841.8,680.8		H749v-45.4h92.8v9.8h-23.7v25.7h23.7V680.8z M841.8,647.3V669h-21.7v-21.7H841.8z M843.8,669v-21.7h21.7V669H843.8z M912.8,692.7		h-45.4V671h45.4V692.7z M914.8,647.3h45.4V669h-45.4V647.3z"/>	<path class="st0" d="M1102.4,645.3V671h49.4v-25.7H1102.4z M1149.8,669h-45.4v-21.7h45.4V669z"/>	<path class="st0" d="M1102.4,573.6v25.7h49.4v-25.7H1102.4z M1149.8,597.3h-45.4v-21.7h45.4V597.3z"/>	<path class="st0" d="M1104.4,634.9v-25.7H1055v12.4h-71.1V671h96.8v-36.1H1104.4L1104.4,634.9z M1057,611.2h45.4v21.7h-21.7v-11.3		H1057V611.2z M1057,623.6h21.7v9.3H1057V623.6z M1078.7,669h-92.8v-45.4h69.1v11.3h23.7V669z"/>	<path class="st0" d="M699.6,718.4H749v-25.7h-49.4V718.4z M701.6,694.7H747v21.7h-45.4V694.7z"/>	<path class="st0" d="M1057,680.8h-49.4v25.7h23.7v11.8h49.4v-25.7H1057V680.8z M1009.6,704.5v-21.7h45.4v9.8h-23.7v11.8h-21.7		L1009.6,704.5L1009.6,704.5z M1055,694.7v9.8h-21.7v-9.8H1055z M1078.7,694.7v21.7h-45.4v-9.8h23.7v-11.8h21.7L1078.7,694.7		L1078.7,694.7z"/>	<path class="st0" d="M914.8,611.2h23.7v-25.7h-49.4v23.7h-23.7v25.7h49.4V611.2z M891.2,587.5h45.4v21.7h-21.7h-23.7V587.5z		 M912.8,632.9h-45.4v-21.7h21.7h23.7V632.9z"/>	<path class="st0" d="M1104.4,551.9h23.7v-25.7h-49.4v23.7H1055v25.7h49.4V551.9z M1080.7,528.2h45.4v21.7h-21.7h-23.7L1080.7,528.2		L1080.7,528.2z M1102.4,573.6H1057v-21.7h21.7h23.7L1102.4,573.6L1102.4,573.6z"/>	<path class="st0" d="M1033.3,573.6h-49.4v25.7h49.4V573.6z M1031.3,597.3h-45.4v-21.7h45.4V597.3z"/></g></svg>