<?xml version="1.0" encoding="utf-8"?><svg version="1.1" id="Layer_1" xmlns="http://www.w3.org/2000/svg" xmlns:xlink="http://www.w3.org/1999/xlink" x="0px" y="0px"	 viewBox="0 0 1224 792" style="enable-background:new 0 0 1224 792;" xml:space="preserve"><style type="text/css">	.st0{opacity:0.09;fill:#191919;enable-background:new    ;}</style><g>	<path class="st0" d="M584.2,160.8h-49.4v25.7h49.4V160.8z M582.2,184.5h-45.4v-21.7h45.4V184.5z"/>	<path class="st0" d="M442.1,196.3h-49.4V222h49.4V196.3z M440.1,220h-45.4v-21.7h45.4V220z"/>	<path class="st0" d="M205.1,162.8v-25.7h-23.7v-23.7h-23.7v-11.9h-49.3v25.7h23.7v11.9h23.7v9.8H61v49.4h96.8v-35.5L205.1,162.8		L205.1,162.8z M110.4,125.2v-21.7h45.4v9.8h-23.7v11.8h-21.7C110.4,125.1,110.4,125.2,110.4,125.2z M155.8,115.4v9.8h-21.7v-9.8		H155.8z M134.1,137.1v-9.8h23.7v-11.9h21.7v21.7h-23.7H134.1z M157.8,139.1h23.7h21.6v21.7h-45.4V149v-9.9H157.8z M155.8,196.3H63		v-45.4h92.8v11.8V196.3L155.8,196.3z"/>	<path class="st0" d="M416.4,113.4H369v25.7h49.4v-23.7h94.8V66h-96.8L416.4,113.4L416.4,113.4z M416.4,137.1H371v-21.7h45.4l0,0		V137.1z M418.4,68h92.8v45.4h-92.8l0,0L418.4,68L418.4,68z"/>	<path class="st0" d="M489.5,125.2h-49.4v25.7h23.7v11.8h49.4v-25.6h-23.7V125.2z M442.1,148.9v-21.7h45.4v9.8h-23.7v11.8h-21.7		L442.1,148.9L442.1,148.9z M487.5,139.1v9.8h-21.7v-9.8H487.5z M511.2,139.1v21.7h-45.4V151h23.7v-11.9H511.2z"/>	<path class="st0" d="M347.3,198.3v-2v-47.4h-47.4v-9.8h23.7v-25.7h-49.4v11.8h-23.7v23.7v2v45.4h-47.4V222h49.4v-23.7h45.4V222		h23.7v23.7H371V220h-23.7V198.3L347.3,198.3z M276.2,115.4h45.4v21.7h-21.7v-11.8h-23.7L276.2,115.4L276.2,115.4z M276.2,127.2		h21.7v9.8h-21.7V127.2z M252.5,127.2h21.7v11.9h23.7v9.8h-45.4L252.5,127.2L252.5,127.2z M250.5,220h-45.4v-21.7h45.4V220z		 M252.5,196.3v-45.4h47.4h45.4v45.4h-47.4L252.5,196.3L252.5,196.3z M299.9,220v-21.7h45.4V220h-23.7H299.9z M369,222v21.7h-45.4		V222h23.7H369z"/>	<path class="st0" d="M416.4,258.1h49.4v-25.7h-49.4V258.1z M418.4,234.5h45.4v21.6h-45.4V234.5z"/></g></svg>